HIERARCHY
ROOT Hip
{
	OFFSET 0 0 0
	CHANNELS 6 Xposition Yposition Zposition Zrotation Yrotation Xrotation
	JOINT ShoulderCenter
	{
		OFFSET 0 0.4363 0
		CHANNELS 3 Zrotation Yrotation Xrotation
		JOINT Head
		{
			OFFSET 0 0.1849 0
			CHANNELS 3 Zrotation Yrotation Xrotation
			End Site
			{
				OFFSET 0.0 0.0891 0.0
			}
		}
		JOINT ShoulderLeft
		{
			OFFSET -0.14 0 0
			CHANNELS 3 Zrotation Yrotation Xrotation
			JOINT ElbowLeft
			{
				OFFSET -0.25 0 0
				CHANNELS 3 Zrotation Yrotation Xrotation
				JOINT WristLeft
				{
					OFFSET -0.23 0 0
					CHANNELS 3 Zrotation Yrotation Xrotation
					End Site
					{
						OFFSET -0.0832 0.0 0.0
					}
				}
			}
		}
		JOINT ShoulderRight
		{
			OFFSET 0.14 0 0
			CHANNELS 3 Zrotation Yrotation Xrotation
			JOINT ElbowRight
			{
				OFFSET 0.25 0 0
				CHANNELS 3 Zrotation Yrotation Xrotation
				JOINT WristRight
				{
					OFFSET 0.23 0 0
					CHANNELS 3 Zrotation Yrotation Xrotation
					End Site
					{
						OFFSET 0.0832 0.0 0.0
					}
				}
			}
		}
	}
	JOINT HipLeft
	{
		OFFSET -0.0952 0 0
		CHANNELS 3 Zrotation Yrotation Xrotation
		JOINT KneeLeft
		{
			OFFSET 0 -0.3732 0
			CHANNELS 3 Zrotation Yrotation Xrotation
			JOINT AnkleLeft
			{
				OFFSET 0 -0.346 0
				CHANNELS 3 Zrotation Yrotation Xrotation
				End Site
				{
					OFFSET 0.0 0.0 0.0891
				}
			}
		}
	}
	JOINT HipRight
	{
		OFFSET 0.0952 0 0
		CHANNELS 3 Zrotation Yrotation Xrotation
		JOINT KneeRight
		{
			OFFSET 0 -0.3732 0
			CHANNELS 3 Zrotation Yrotation Xrotation
			JOINT AnkleRight
			{
				OFFSET 0 -0.346 0
				CHANNELS 3 Zrotation Yrotation Xrotation
				End Site
				{
					OFFSET 0.0 0.0 0.0891
				}
			}
		}
	}
}
MOTION
Frames: 21
Frame Time: 0.033333
-0.034944 0.6966049999999999 0.0542600000000002 -0.572833 6.10544 -0.8317000000000014 2.38473 -3.53217 13.5644 0 0 0 102.14 -72.7858 7.80365 -179.373 0.836793 -179.709 0 0 0 -121.141 36.5756 175.013 180 -56.9915 -180 0 0 0 -5.67658 -14.216 -22.9893 6.75607 -3.61131 65.7136 0 0 0 0.564943 -7.46268 -34.0858 3.36573 -2.30614 64.9218 0 0 0
-0.034944 0.6966049999999999 0.07393000000000027 -0.386804 4.71331 -6.240500000000001 3.59376 -4.33569 19.4892 -4.26887e-07 0 0 95.7208 -72.536 12.8353 -179.373 0.839381 -179.708 0 0 0 -123.558 35.5064 173.736 -180 -57.1606 -180 0 0 0 -5.12072 -13.3936 -18.091 5.79223 -3.91441 67.2328 0 0 0 -0.426248 -7.97644 -28.2915 5.22956 -3.32431 57.6146 0 0 0
-0.032819000000000015 0.6966049999999999 0.07558000000000042 2.4458 5.75361 -0.5021000000000022 1.61978 -0.434854 7.36555 0 0 0 115.473 -78.1313 -7.54504 -179.404 0.807958 -179.719 0 0 0 -124.219 43.1154 172.708 180 -57.3831 -180 0 0 0 -7.10139 -15.0423 -23.5118 4.79956 -4.40012 69.9489 0 0 0 -4.73765 -6.68737 -32.9218 4.64208 -2.91064 55.9945 0 0 0
-0.032084 0.705336 0.07558000000000042 2.15051 6.75328 -0.021000000000000796 1.12103 -1.36248 8.37223 0 0 0 113.248 -76.7278 -4.86173 -179.402 0.812059 -179.717 0 0 0 -122.964 41.8873 173.983 180 -57.4413 -180 0 0 0 -7.01519 -13.5642 -24.5272 5.46253 -4.20777 66.94 0 0 0 -5.09857 -8.10099 -36.0032 4.97729 -2.48921 58.543 0 0 0
-0.014974000000000015 0.736019 0.07393000000000027 2.39318 5.87542 -4.442800000000002 7.0189 3.62049 15.4033 0 0 0 121.748 -72.0117 -18.4872 -179.324 0.87361 -179.695 0 0 0 -122.187 42.5597 -177.98 180 -57.2278 -180 0 0 0 -8.44722 -15.463 -20.5731 5.83283 -3.69191 69.664 0 0 0 -6.83198 -10.9178 -28.7479 9.89845 -3.07587 48.4761 0 0 0
-0.012455999999999995 0.7701509999999999 0.05021000000000031 0.70852 12.5183 -0.5465000000000018 3.24493 -1.49608 4.03845 0 0 0 141.758 -76.4036 -36.6209 -179.284 0.950348 -179.668 0 0 0 -122.51 48.5371 178.032 -180 -57.255 180 0 8.53774e-07 0 -12.2334 -21.8944 -19.3504 11.9681 -5.80294 62.3223 0 0 0 -10.3915 -16.1475 -29.7369 17.0068 -2.67295 38.9884 -6.26172e-15 -4.26887e-07 1.68087e-06
-0.008266999999999997 0.7701509999999999 0.05021000000000031 1.33073 13.6914 -0.25730000000000075 1.02364 -0.774441 3.74958 0 0 0 146.981 -75.2911 -40.6565 -179.282 0.953341 -179.667 0 0 0 -119.837 49.4662 179.858 180 -57.3399 -180 -3.41509e-06 0 0 -13.8816 -24.3455 -19.2199 12.8512 -6.34549 62.5788 0 0 0 -11.4355 -14.5075 -28.8568 16.3074 -1.69703 35.8244 0 0 0
-0.006035000000000013 0.7701509999999999 0.04738000000000042 0.0324706 16.1756 -0.29490000000000194 0.928969 -1.28585 3.43024 0 0 0 151.54 -73.3713 -44.9481 -179.281 0.942493 -179.671 0 0 0 -117.108 50.5599 -177.115 180 -57.415 180 0 0 0 -12.6659 -24.262 -18.9426 13.5038 -6.53006 61.3628 0 0 0 -11.6395 -14.7158 -26.5956 18.5258 -1.65781 30.7194 0 0 0
-0.006035000000000013 0.7568619999999999 0.05021000000000031 0.330886 15.0309 -0.13390000000000057 0.00282877 0.599237 3.87883 0 0 1.68087e-06 152.244 -72.5857 -44.4863 -179.258 0.936884 -179.672 0 -3.41509e-06 0 -115.122 50.5175 -176.003 180 -57.5752 -180 0 0 0 -12.088 -24.2363 -18.4365 12.5218 -8.56597 61.3225 -1.60083e-06 0 0 -11.6844 -12.0913 -25.5689 18.8935 -3.51747 27.053 0 0 0
-0.0023160000000000125 0.752057 0.05049999999999999 -0.815098 14.814 -0.5557000000000016 2.16457 -0.155066 3.15947 0 0 0 153.1 -73.3902 -46.5191 -179.269 0.912845 -179.68 0 0 0 -117.24 51.1733 -177.31 180 -57.7004 -180 0 0 0 -10.8526 -23.9993 -18.4526 12.1138 -8.09028 62.112 0 0 0 -10.4075 -12.7448 -25.4963 19.5962 -3.62408 27.1909 0 0 0
-0.0023160000000000125 0.7367739999999999 0.05259000000000036 -0.842392 14.6177 -0.9674000000000014 2.06138 0.066458 3.76891 -2.13443e-07 -1.70755e-06 1.70755e-06 152.99 -73.267 -46.1866 -179.282 0.883682 -179.69 0 0 0 -116.978 51.1504 -177.213 180 -57.8575 180 0 0 0 -10.4199 -24.395 -19.0165 12.5259 -8.57382 61.3622 0 0 0 -10.8153 -12.8957 -25.3213 19.9154 -3.66454 26.9346 0 0 0
-0.0023160000000000125 0.723546 0.05049999999999999 0.161044 12.5921 -0.30460000000000065 1.61755 0.241587 3.0491 0 0 0 151.069 -75.3108 -43.9598 -179.298 0.851438 -179.701 0 0 0 -119.293 50.6096 179.537 180 -58.0172 -180 0 0 0 -8.82771 -24.0283 -21.6862 11.294 -7.61701 63.3437 -1.70755e-06 0 0 -10.8912 -21.0306 -34.992 20.7366 -3.68193 38.135 0 -2.13443e-07 0
-0.0023160000000000125 0.70733 0.05049999999999999 0.352313 12.1542 -0.339500000000001 1.495 -0.723498 4.89019 0 0 0 142.593 -75.5822 -35.185 -179.311 0.824076 -179.711 0 0 -1.70755e-06 -119.828 48.4985 178.839 180 -58.1749 -180 0 0 0 -8.35031 -21.919 -26.0718 9.48489 -6.50996 64.9974 0 0 0 -11.123 -20.4077 -35.4946 20.4069 -4.55551 38.6714 -3.13086e-15 -2.13443e-07 1.68087e-06
-2.9000000000001247e-05 0.706488 0.0487700000000002 1.31287 11.2437 -0.49480000000000146 1.12089 -0.0562391 5.88033 0 0 0 139.396 -75.6096 -32.0777 -179.313 0.819077 -179.712 0 0 -1.70755e-06 -120.215 47.7975 178.596 -180 -58.2957 180 0 0 0 -7.98143 -17.6637 -25.9348 8.10968 -5.67638 64.2454 0 0 0 -11.5911 -19.5058 -35.0496 20.1093 -4.79675 38.226 0 0 0
-0.0044450000000000045 0.706488 0.044399999999999995 -1.64818 11.8323 -7.795000000000002 3.66623 -5.29722 21.3813 0 0 0 113.269 -70.0053 -6.09908 -179.302 0.867615 -179.695 0 0 0 -119.699 38.5708 -178.8 -180 -58.259 180 0 0 0 -7.45983 -14.492 -13.5032 7.74836 -7.16048 60.8762 0 0 0 -11.7149 -15.6779 -27.4187 19.4651 -5.57117 35.771 0 0 0
-0.005880999999999997 0.706488 0.04141000000000039 -1.42971 11.0059 -9.204 2.58596 -6.65649 25.746 0 0 0 105.249 -68.2017 2.72909 -179.299 0.88736 -179.688 0 0 0 -120.014 35.074 -179.678 180 -58.3579 180 -3.4151e-06 0 0 -7.27786 -14.7303 -11.8198 7.356 -6.91317 62.3519 5.33608e-08 0 0 -10.971 -14.8661 -25.3789 19.2847 -5.62384 35.2717 5.33608e-08 -2.13443e-07 -9.93923e-17
8.500000000000174e-05 0.758111 0.0038200000000001566 1.69129 8.69645 -2.8431999999999995 2.02136 -5.39581 12.5843 -2.66804e-08 -3.10601e-18 -1.33402e-08 102.845 -75.8069 3.99873 -179.232 1.01713 -179.642 0 0 0 -125.594 40.0433 173.109 -180 -58.3121 180 0 0 0 -6.42081 -17.2628 -20.4601 6.03771 -5.0403 69.0594 0 0 -1.70755e-06 -10.5828 -11.2078 -25.4566 18.9713 -2.5834 22.233 1.06722e-07 -1.54058e-15 1.65419e-06
-0.003033000000000008 0.758111 -0.020540000000000003 2.66927 6.89241 0.43419999999999703 0.618547 0.0816192 3.31469 -4.26887e-07 5.33609e-08 1.70755e-06 131.403 -80.0564 -23.2814 -179.234 1.018 -179.641 3.4151e-06 0 0 -124.734 46.9348 171.703 -180 -58.3356 180 0 0 0 -6.07421 -15.6279 -22.7529 7.5327 -5.86211 63.2184 0 0 0 -10.2084 -10.0035 -27.08 18.7926 -2.35012 17.8796 0 0 0
-0.007838000000000012 0.758111 -0.028559999999999697 1.13029 8.97293 0.3791999999999973 1.11394 -0.0591465 4.92295 0 0 -2.66804e-08 134.277 -77.1464 -25.9113 -179.242 1.02123 -179.64 0 0 0 -121.329 46.6959 175.992 -180 -58.3652 180 0 0 0 -6.75263 -18.8436 -21.7974 10.8055 -7.21637 59.6709 0 0 0 -10.6089 -10.8673 -26.5949 19.1987 -1.642 16.5119 0 0 3.41509e-06
-0.007838000000000012 0.7559819999999999 -0.03235999999999972 0.727229 10.179 0.9051999999999971 1.08218 -0.639859 4.62334 0 0 0 135.482 -76.4572 -27.1431 -179.245 1.01865 -179.641 0 0 0 -120.564 46.8201 177.059 -180 -58.4476 -180 0 0 0 -6.60368 -20.248 -22.2985 10.3878 -6.95758 61.9894 0 0 0 -12.9338 -14.4877 -27.6691 21.6068 -1.32879 18.3947 0 0 0
-0.007838000000000012 0.74886 -0.05247000000000002 2.78551 5.71275 2.863599999999998 0.449246 0.524359 5.30184 0 0 0 116.934 -76.8557 -8.10393 -179.244 1.02517 -179.638 0 0 0 -122.659 43.003 174.157 -180 -58.589 -180 0 0 0 -5.4401 -16.7445 -25.1433 9.71838 -6.60515 59.3185 0 0 0 -10.8663 -12.5297 -30.0355 20.1035 -2.0047 18.6251 -8.27093e-07 2.46493e-14 3.41509e-06
